<?xml version="1.0" standalone="no"?>
<!DOCTYPE svg PUBLIC "-//W3C//DTD SVG 20010904//EN"
 "http://www.w3.org/TR/2001/REC-SVG-20010904/DTD/svg10.dtd">
<svg version="1.0" xmlns="http://www.w3.org/2000/svg"
 width="312.000000pt" height="92.000000pt" viewBox="0 0 312.000000 92.000000"
 preserveAspectRatio="xMidYMid meet">

<g transform="translate(0.000000,92.000000) scale(0.100000,-0.100000)"
fill="#000000" stroke="none">
<path d="M253 754 l-183 -106 0 -212 0 -212 185 -108 185 -108 177 103 c98 56
181 107 185 113 8 11 11 186 4 186 -2 0 -82 -45 -177 -100 -96 -55 -181 -100
-189 -100 -8 0 -55 24 -105 53 l-90 53 0 119 0 120 181 105 181 105 -81 47
c-45 26 -83 47 -86 47 -3 0 -87 -47 -187 -105z"/>
<path d="M576 686 c-38 -22 -68 -45 -68 -50 0 -4 29 -25 64 -45 l63 -36 3 -84
c3 -95 -4 -93 103 -31 l69 41 0 84 0 84 -68 41 c-38 22 -75 40 -83 39 -8 0
-45 -20 -83 -43z"/>
<path d="M1880 540 c0 -5 5 -10 10 -10 15 0 13 -137 -2 -143 -7 -3 5 -6 27 -6
30 -1 36 2 27 11 -14 14 -16 57 -3 77 15 24 31 1 31 -45 0 -40 2 -44 24 -44
22 0 23 2 15 50 -10 65 -16 73 -50 68 -26 -4 -29 -2 -29 24 0 23 -4 28 -25 28
-14 0 -25 -4 -25 -10z"/>
<path d="M2047 544 c-9 -10 2 -24 19 -24 8 0 14 7 14 15 0 15 -21 21 -33 9z"/>
<path d="M2520 535 c0 -8 7 -15 15 -15 8 0 15 7 15 15 0 8 -7 15 -15 15 -8 0
-15 -7 -15 -15z"/>
<path d="M2798 538 c21 -21 15 -46 -11 -41 -31 6 -51 -20 -51 -64 0 -39 28
-68 54 -57 8 4 31 6 50 6 19 -1 29 1 23 4 -9 4 -13 31 -13 85 l0 79 -32 0
c-25 0 -29 -3 -20 -12z m7 -104 c0 -28 -4 -39 -15 -39 -16 0 -26 45 -16 72 11
28 31 7 31 -33z"/>
<path d="M900 530 c0 -5 5 -10 10 -10 15 0 13 -127 -2 -133 -7 -3 7 -6 31 -6
40 -1 43 0 26 13 -22 16 -14 46 13 46 10 0 27 9 36 19 23 25 13 59 -21 72 -32
12 -93 12 -93 -1z m85 -21 c11 -16 -4 -59 -20 -59 -10 0 -15 11 -15 35 0 35
20 49 35 24z"/>
<path d="M2368 528 c16 -16 16 -135 0 -141 -7 -3 10 -5 37 -5 28 0 42 2 33 5
-12 3 -18 14 -18 33 0 24 5 29 28 33 l27 4 -27 2 c-24 1 -28 5 -28 31 0 24 4
30 21 30 12 0 28 -8 35 -17 12 -16 13 -15 14 10 0 27 0 27 -67 27 -52 0 -64
-3 -55 -12z"/>
<path d="M1311 508 c-14 -22 -16 -72 -5 -110 6 -21 31 -31 51 -20 13 8 13 10
-1 15 -22 9 -23 87 -1 87 8 0 15 5 15 10 0 6 -7 10 -15 10 -8 0 -15 7 -15 15
0 22 -13 18 -29 -7z"/>
<path d="M1060 490 c-12 -7 -12 -12 -2 -22 9 -9 15 -9 24 0 16 16 28 15 28 -3
0 -8 -9 -15 -19 -15 -20 0 -51 -24 -51 -40 0 -18 33 -41 49 -34 9 4 28 6 42 5
25 -1 25 0 19 47 -3 26 -9 53 -13 60 -10 14 -56 16 -77 2z m48 -77 c-5 -25
-28 -28 -28 -4 0 12 6 21 16 21 9 0 14 -7 12 -17z"/>
<path d="M1178 488 c16 -16 16 -95 0 -101 -7 -3 7 -6 32 -6 35 0 41 2 28 10
-20 11 -23 41 -7 71 9 16 13 18 20 7 6 -10 11 -11 20 -2 6 6 8 16 5 22 -10 15
-43 14 -49 -1 -4 -10 -6 -10 -6 0 -1 6 -13 12 -28 12 -21 0 -24 -3 -15 -12z"/>
<path d="M1380 490 c0 -6 5 -10 10 -10 14 0 12 -74 -2 -88 -9 -9 -3 -12 28
-12 25 0 34 3 26 9 -19 12 -12 86 8 86 11 0 16 -13 18 -47 3 -45 5 -48 30 -48
16 0 22 3 15 8 -6 4 -13 30 -15 57 l-3 50 -57 2 c-33 2 -58 -2 -58 -7z"/>
<path d="M1549 484 c-20 -24 -16 -84 6 -100 25 -18 47 -18 71 2 18 15 18 15
-5 10 -25 -5 -51 8 -51 25 0 5 16 9 35 9 31 0 35 3 35 25 0 41 -64 61 -91 29z
m59 -22 c2 -7 -6 -12 -17 -12 -21 0 -27 11 -14 24 9 9 26 2 31 -12z"/>
<path d="M1665 439 l0 -59 35 1 c19 0 29 3 23 6 -7 2 -13 22 -13 43 0 39 13
59 25 40 10 -17 25 -11 25 9 0 16 -8 19 -47 19 l-48 0 0 -59z"/>
<path d="M1793 493 c-25 -10 -14 -52 17 -68 34 -18 39 -35 10 -35 -12 0 -20 7
-20 16 0 17 -21 15 -27 -3 -6 -17 33 -34 61 -27 14 3 28 15 31 25 7 22 -10 49
-30 49 -7 0 -18 6 -24 14 -9 10 -8 15 3 19 9 4 19 -1 24 -10 6 -11 11 -12 16
-4 16 25 -23 40 -61 24z"/>
<path d="M2030 490 c0 -5 5 -10 10 -10 15 0 12 -87 -2 -93 -7 -3 5 -6 27 -6
30 -1 36 2 27 11 -7 7 -12 34 -12 60 0 45 -2 48 -25 48 -14 0 -25 -4 -25 -10z"/>
<path d="M2110 489 c0 -4 5 -11 10 -14 6 -3 10 -33 10 -65 0 -32 -4 -62 -10
-65 -21 -13 -9 -25 25 -25 19 0 35 5 35 10 0 6 -4 10 -10 10 -5 0 -10 11 -10
25 0 23 2 24 21 15 45 -24 83 65 44 103 -15 16 -115 21 -115 6z m88 -51 c-4
-51 -31 -61 -36 -15 -4 37 4 57 23 57 13 0 15 -9 13 -42z"/>
<path d="M2272 488 c-22 -22 -14 -49 18 -61 17 -6 30 -17 30 -24 0 -18 -29
-16 -36 2 -9 21 -24 19 -24 -4 0 -23 42 -36 71 -21 28 15 21 52 -13 68 -29 14
-35 26 -18 37 6 3 13 0 16 -9 3 -8 12 -12 20 -9 11 4 12 9 3 19 -14 17 -51 18
-67 2z"/>
<path d="M2500 490 c0 -5 5 -10 10 -10 15 0 12 -87 -2 -93 -7 -3 5 -6 27 -6
30 -1 36 2 27 11 -7 7 -12 34 -12 60 0 45 -2 48 -25 48 -14 0 -25 -4 -25 -10z"/>
<path d="M2580 490 c0 -6 5 -10 10 -10 14 0 12 -74 -2 -88 -9 -9 -3 -12 27
-11 22 0 34 3 28 6 -15 5 -17 61 -4 82 15 24 31 1 31 -45 0 -41 2 -44 26 -44
20 0 24 3 16 13 -6 7 -12 33 -14 57 l-3 45 -57 2 c-33 2 -58 -2 -58 -7z"/>
<path d="M2897 482 c-37 -41 -2 -121 46 -108 12 3 25 6 30 6 4 0 7 7 7 16 0
13 -3 14 -15 4 -18 -15 -45 -6 -45 15 0 10 10 15 30 15 38 0 49 23 25 50 -23
25 -57 26 -78 2z m53 -17 c0 -8 -7 -15 -15 -15 -8 0 -15 7 -15 15 0 8 7 15 15
15 8 0 15 -7 15 -15z"/>
<path d="M3008 488 c16 -16 16 -95 0 -101 -7 -3 7 -6 32 -6 35 0 41 2 28 10
-20 11 -23 41 -7 71 9 16 13 18 20 7 6 -10 11 -11 20 -2 6 6 8 16 5 22 -10 15
-43 14 -49 -1 -4 -10 -6 -10 -6 0 -1 6 -13 12 -28 12 -21 0 -24 -3 -15 -12z"/>
</g>
</svg>
