<?xml version="1.0" standalone="no"?>
<!DOCTYPE svg PUBLIC "-//W3C//DTD SVG 20010904//EN"
 "http://www.w3.org/TR/2001/REC-SVG-20010904/DTD/svg10.dtd">
<svg version="1.0" xmlns="http://www.w3.org/2000/svg"
 width="78.000000pt" height="87.000000pt" viewBox="0 0 78.000000 87.000000"
 preserveAspectRatio="xMidYMid meet">

<g transform="translate(0.000000,87.000000) scale(0.100000,-0.100000)"
fill="#000000" stroke="none">
<path d="M210 725 l-175 -103 0 -213 0 -214 170 -98 c96 -54 181 -97 196 -97
15 0 99 42 195 98 l169 97 3 94 c2 79 0 93 -12 88 -8 -3 -90 -49 -181 -101
-92 -53 -172 -96 -178 -95 -7 0 -52 24 -102 53 l-90 51 -3 122 -3 121 181 104
c99 56 180 105 179 108 0 8 -148 90 -161 89 -7 0 -92 -47 -188 -104z"/>
<path d="M570 677 c-19 -11 -53 -32 -74 -45 l-39 -24 71 -40 72 -40 0 -85 c0
-46 4 -83 8 -81 5 2 43 23 86 47 l77 45 -3 85 -3 84 -60 38 c-69 43 -87 45
-135 16z"/>
</g>
</svg>
